<svg xmlns="http://www.w3.org/2000/svg" xmlns:xlink="http://www.w3.org/1999/xlink" width="500" zoomAndPan="magnify" viewBox="0 0 375 374.999991" height="500" preserveAspectRatio="xMidYMid meet" version="1.0"><defs><g/><clipPath id="a7f8e749c8"><path d="M 96.285156 70 L 278.535156 70 L 278.535156 236 L 96.285156 236 Z M 96.285156 70 " clip-rule="nonzero"/></clipPath><clipPath id="ca0726bb2b"><path d="M 186.105469 72.460938 C 196.042969 68.832031 207.90625 71.410156 215.378906 78.921875 C 233.445312 96.925781 251.472656 115 269.539062 133 C 274.691406 138.117188 277.882812 145.121094 278.246094 152.378906 C 278.535156 160.726562 274.691406 168.929688 268.597656 174.554688 C 250.640625 192.414062 232.863281 210.378906 214.871094 228.199219 C 205.910156 236.835938 190.496094 238.902344 180.445312 231.101562 C 180.410156 224.566406 181.898438 217.960938 184.980469 212.191406 C 187.992188 206.53125 193.648438 202.140625 200.144531 201.523438 C 205.1875 200.832031 209.972656 203.117188 214.980469 202.972656 C 218.5 203.117188 222.527344 202.210938 224.558594 199.089844 C 226.117188 196.042969 225.066406 192.484375 226.007812 189.292969 C 227.277344 187.875 228.910156 186.824219 230.398438 185.660156 C 230 184.429688 229.492188 183.230469 229.09375 182.03125 C 232.574219 179.710938 230.832031 175.609375 231.015625 172.195312 C 233.300781 170.238281 237.035156 169.984375 238.558594 167.1875 C 238.488281 163.488281 235.332031 160.910156 233.554688 157.933594 C 230.871094 153.722656 227.242188 148.824219 229.453125 143.632812 C 232.246094 134.960938 231.304688 125.269531 227.023438 117.25 C 222.816406 108.574219 214.90625 102.152344 206.273438 98.230469 C 197.351562 94.382812 187.664062 92.53125 177.980469 92.0625 C 172.175781 91.769531 166.480469 93.1875 160.820312 94.203125 C 164.484375 89.992188 168.582031 86.21875 172.5 82.1875 C 176.382812 78.089844 180.664062 74.167969 186.105469 72.460938 Z M 109.453125 106.035156 C 104.703125 110.28125 105.210938 118.335938 110.035156 122.328125 C 117.542969 129.625 124.691406 137.28125 132.378906 144.394531 C 132.453125 138.589844 132.742188 132.746094 133.289062 126.976562 C 136.042969 113.765625 144.933594 102.003906 157.046875 95.945312 C 153.710938 92.425781 150.335938 88.902344 146.855469 85.527344 C 144.570312 83.3125 141.628906 81.28125 138.292969 81.574219 C 134.484375 81.464844 131.363281 83.96875 128.863281 86.542969 C 122.441406 93.113281 115.875 99.5 109.453125 106.035156 Z M 161.800781 115.796875 C 159.988281 117.683594 157.445312 119.753906 158.246094 122.730469 C 160.058594 126.105469 163.324219 128.425781 165.898438 131.222656 C 167.640625 132.820312 169.707031 135.433594 172.394531 134.234375 C 175.65625 132.203125 178.089844 129.152344 180.882812 126.539062 C 182.476562 124.796875 184.835938 122.800781 183.890625 120.152344 C 181.535156 116.59375 178.195312 113.835938 175.222656 110.824219 C 173.625 109.445312 171.339844 107.269531 169.199219 108.972656 C 166.371094 110.898438 164.195312 113.511719 161.800781 115.796875 Z M 100.347656 147.808594 C 99.042969 149.257812 97.191406 150.566406 96.976562 152.671875 C 96.285156 157.0625 101.039062 159.3125 103.433594 162.253906 C 106.152344 164.503906 108.65625 169.222656 112.828125 167.734375 C 116.601562 165.445312 119.285156 161.816406 122.476562 158.839844 C 124.144531 156.988281 126.832031 154.484375 125.304688 151.765625 C 122.441406 147.84375 118.703125 144.613281 115.257812 141.203125 C 113.515625 139.316406 110.507812 138.261719 108.328125 140.078125 C 105.390625 142.328125 103.035156 145.265625 100.347656 147.808594 Z M 148.777344 146.285156 C 142.246094 152.707031 135.863281 159.277344 129.296875 165.699219 C 127.046875 167.878906 124.761719 170.492188 124.726562 173.828125 C 124.183594 177.460938 125.667969 181.089844 128.316406 183.59375 C 133.6875 189 139.199219 194.300781 144.496094 199.78125 C 146.78125 202.066406 148.957031 204.570312 151.605469 206.492188 C 155.886719 209.652344 162.308594 208.960938 165.972656 205.1875 C 173.261719 197.964844 180.480469 190.671875 187.738281 183.484375 C 192.164062 179.308594 192.5625 171.578125 188.0625 167.296875 C 181.027344 160.148438 173.917969 153.035156 166.804688 145.992188 C 163.867188 142.980469 159.585938 140.65625 155.308594 141.964844 C 152.804688 142.652344 150.664062 144.433594 148.777344 146.285156 Z M 148.777344 146.285156 " clip-rule="nonzero"/></clipPath><linearGradient x1="24.317876" gradientTransform="matrix(0.362759, 0, 0, 0.362934, 96.902598, 70.829468)" y1="-29.467168" x2="488.453571" gradientUnits="userSpaceOnUse" y2="474.381163" id="6a66600c7e"><stop stop-opacity="1" stop-color="rgb(0%, 8.999634%, 62.69989%)" offset="0"/><stop stop-opacity="1" stop-color="rgb(0%, 8.999634%, 62.69989%)" offset="0.25"/><stop stop-opacity="1" stop-color="rgb(0%, 9.028625%, 62.705994%)" offset="0.3125"/><stop stop-opacity="1" stop-color="rgb(0%, 9.368896%, 62.783813%)" offset="0.316406"/><stop stop-opacity="1" stop-color="rgb(0%, 9.680176%, 62.854004%)" offset="0.320313"/><stop stop-opacity="1" stop-color="rgb(0%, 9.989929%, 62.924194%)" offset="0.324219"/><stop stop-opacity="1" stop-color="rgb(0%, 10.299683%, 62.995911%)" offset="0.328125"/><stop stop-opacity="1" stop-color="rgb(0%, 10.609436%, 63.066101%)" offset="0.332031"/><stop stop-opacity="1" stop-color="rgb(0%, 10.920715%, 63.137817%)" offset="0.335937"/><stop stop-opacity="1" stop-color="rgb(0%, 11.230469%, 63.208008%)" offset="0.339844"/><stop stop-opacity="1" stop-color="rgb(0%, 11.540222%, 63.278198%)" offset="0.34375"/><stop stop-opacity="1" stop-color="rgb(0%, 11.849976%, 63.348389%)" offset="0.347656"/><stop stop-opacity="1" stop-color="rgb(0%, 12.161255%, 63.420105%)" offset="0.351563"/><stop stop-opacity="1" stop-color="rgb(0%, 12.471008%, 63.490295%)" offset="0.355469"/><stop stop-opacity="1" stop-color="rgb(0%, 12.780762%, 63.562012%)" offset="0.359375"/><stop stop-opacity="1" stop-color="rgb(0%, 13.090515%, 63.632202%)" offset="0.363281"/><stop stop-opacity="1" stop-color="rgb(0%, 13.400269%, 63.702393%)" offset="0.367188"/><stop stop-opacity="1" stop-color="rgb(0%, 13.710022%, 63.772583%)" offset="0.371094"/><stop stop-opacity="1" stop-color="rgb(0%, 14.021301%, 63.844299%)" offset="0.375"/><stop stop-opacity="1" stop-color="rgb(0%, 14.331055%, 63.91449%)" offset="0.378906"/><stop stop-opacity="1" stop-color="rgb(0%, 14.640808%, 63.986206%)" offset="0.382813"/><stop stop-opacity="1" stop-color="rgb(0%, 14.950562%, 64.056396%)" offset="0.386719"/><stop stop-opacity="1" stop-color="rgb(0%, 15.261841%, 64.128113%)" offset="0.390625"/><stop stop-opacity="1" stop-color="rgb(0%, 15.571594%, 64.198303%)" offset="0.394531"/><stop stop-opacity="1" stop-color="rgb(0%, 15.881348%, 64.268494%)" offset="0.398438"/><stop stop-opacity="1" stop-color="rgb(0%, 16.191101%, 64.338684%)" offset="0.402344"/><stop stop-opacity="1" stop-color="rgb(0%, 16.50238%, 64.4104%)" offset="0.40625"/><stop stop-opacity="1" stop-color="rgb(0%, 16.812134%, 64.480591%)" offset="0.410156"/><stop stop-opacity="1" stop-color="rgb(0%, 17.121887%, 64.552307%)" offset="0.414063"/><stop stop-opacity="1" stop-color="rgb(0%, 17.431641%, 64.622498%)" offset="0.417969"/><stop stop-opacity="1" stop-color="rgb(0%, 17.74292%, 64.692688%)" offset="0.421875"/><stop stop-opacity="1" stop-color="rgb(0%, 18.052673%, 64.762878%)" offset="0.425781"/><stop stop-opacity="1" stop-color="rgb(0%, 18.362427%, 64.834595%)" offset="0.429688"/><stop stop-opacity="1" stop-color="rgb(0%, 18.67218%, 64.904785%)" offset="0.433594"/><stop stop-opacity="1" stop-color="rgb(0%, 18.983459%, 64.976501%)" offset="0.4375"/><stop stop-opacity="1" stop-color="rgb(0%, 19.293213%, 65.046692%)" offset="0.441406"/><stop stop-opacity="1" stop-color="rgb(0%, 19.602966%, 65.118408%)" offset="0.445313"/><stop stop-opacity="1" stop-color="rgb(0%, 19.91272%, 65.188599%)" offset="0.449219"/><stop stop-opacity="1" stop-color="rgb(0%, 20.223999%, 65.258789%)" offset="0.453125"/><stop stop-opacity="1" stop-color="rgb(0%, 20.533752%, 65.328979%)" offset="0.457031"/><stop stop-opacity="1" stop-color="rgb(0%, 20.843506%, 65.400696%)" offset="0.460938"/><stop stop-opacity="1" stop-color="rgb(0%, 21.153259%, 65.470886%)" offset="0.464844"/><stop stop-opacity="1" stop-color="rgb(0%, 21.463013%, 65.542603%)" offset="0.46875"/><stop stop-opacity="1" stop-color="rgb(0%, 21.772766%, 65.612793%)" offset="0.472656"/><stop stop-opacity="1" stop-color="rgb(0%, 22.084045%, 65.682983%)" offset="0.476562"/><stop stop-opacity="1" stop-color="rgb(0%, 22.393799%, 65.753174%)" offset="0.480469"/><stop stop-opacity="1" stop-color="rgb(0%, 22.703552%, 65.82489%)" offset="0.484375"/><stop stop-opacity="1" stop-color="rgb(0%, 23.013306%, 65.895081%)" offset="0.488281"/><stop stop-opacity="1" stop-color="rgb(0%, 23.324585%, 65.966797%)" offset="0.492188"/><stop stop-opacity="1" stop-color="rgb(0%, 23.634338%, 66.036987%)" offset="0.496094"/><stop stop-opacity="1" stop-color="rgb(0%, 23.944092%, 66.107178%)" offset="0.5"/><stop stop-opacity="1" stop-color="rgb(0%, 24.253845%, 66.177368%)" offset="0.503906"/><stop stop-opacity="1" stop-color="rgb(0%, 24.565125%, 66.249084%)" offset="0.507812"/><stop stop-opacity="1" stop-color="rgb(0%, 24.874878%, 66.319275%)" offset="0.511719"/><stop stop-opacity="1" stop-color="rgb(0%, 25.184631%, 66.390991%)" offset="0.515625"/><stop stop-opacity="1" stop-color="rgb(0%, 25.494385%, 66.461182%)" offset="0.519531"/><stop stop-opacity="1" stop-color="rgb(0%, 25.805664%, 66.532898%)" offset="0.523438"/><stop stop-opacity="1" stop-color="rgb(0%, 26.115417%, 66.603088%)" offset="0.527344"/><stop stop-opacity="1" stop-color="rgb(0%, 26.425171%, 66.673279%)" offset="0.53125"/><stop stop-opacity="1" stop-color="rgb(0%, 26.734924%, 66.743469%)" offset="0.535156"/><stop stop-opacity="1" stop-color="rgb(0%, 27.046204%, 66.815186%)" offset="0.539062"/><stop stop-opacity="1" stop-color="rgb(0%, 27.355957%, 66.885376%)" offset="0.542969"/><stop stop-opacity="1" stop-color="rgb(0%, 27.66571%, 66.957092%)" offset="0.546875"/><stop stop-opacity="1" stop-color="rgb(0%, 27.975464%, 67.027283%)" offset="0.550781"/><stop stop-opacity="1" stop-color="rgb(0%, 28.286743%, 67.097473%)" offset="0.554687"/><stop stop-opacity="1" stop-color="rgb(0%, 28.596497%, 67.167664%)" offset="0.558594"/><stop stop-opacity="1" stop-color="rgb(0%, 28.90625%, 67.23938%)" offset="0.5625"/><stop stop-opacity="1" stop-color="rgb(0%, 29.216003%, 67.30957%)" offset="0.566406"/><stop stop-opacity="1" stop-color="rgb(0%, 29.525757%, 67.381287%)" offset="0.570312"/><stop stop-opacity="1" stop-color="rgb(0%, 29.83551%, 67.451477%)" offset="0.574219"/><stop stop-opacity="1" stop-color="rgb(0%, 30.14679%, 67.521667%)" offset="0.578125"/><stop stop-opacity="1" stop-color="rgb(0%, 30.456543%, 67.591858%)" offset="0.582031"/><stop stop-opacity="1" stop-color="rgb(0%, 30.766296%, 67.663574%)" offset="0.585937"/><stop stop-opacity="1" stop-color="rgb(0%, 31.07605%, 67.733765%)" offset="0.589844"/><stop stop-opacity="1" stop-color="rgb(0%, 31.387329%, 67.805481%)" offset="0.59375"/><stop stop-opacity="1" stop-color="rgb(0%, 31.697083%, 67.875671%)" offset="0.597656"/><stop stop-opacity="1" stop-color="rgb(0%, 32.006836%, 67.947388%)" offset="0.601562"/><stop stop-opacity="1" stop-color="rgb(0%, 32.316589%, 68.017578%)" offset="0.605469"/><stop stop-opacity="1" stop-color="rgb(0%, 32.627869%, 68.087769%)" offset="0.609375"/><stop stop-opacity="1" stop-color="rgb(0%, 32.937622%, 68.157959%)" offset="0.613281"/><stop stop-opacity="1" stop-color="rgb(0%, 33.247375%, 68.229675%)" offset="0.617188"/><stop stop-opacity="1" stop-color="rgb(0%, 33.557129%, 68.299866%)" offset="0.621094"/><stop stop-opacity="1" stop-color="rgb(0%, 33.868408%, 68.371582%)" offset="0.625"/><stop stop-opacity="1" stop-color="rgb(0%, 34.178162%, 68.441772%)" offset="0.628906"/><stop stop-opacity="1" stop-color="rgb(0%, 34.487915%, 68.511963%)" offset="0.632812"/><stop stop-opacity="1" stop-color="rgb(0%, 34.797668%, 68.582153%)" offset="0.636719"/><stop stop-opacity="1" stop-color="rgb(0%, 35.108948%, 68.65387%)" offset="0.640625"/><stop stop-opacity="1" stop-color="rgb(0%, 35.418701%, 68.72406%)" offset="0.644531"/><stop stop-opacity="1" stop-color="rgb(0%, 35.728455%, 68.795776%)" offset="0.648438"/><stop stop-opacity="1" stop-color="rgb(0%, 36.038208%, 68.865967%)" offset="0.652344"/><stop stop-opacity="1" stop-color="rgb(0%, 36.347961%, 68.936157%)" offset="0.65625"/><stop stop-opacity="1" stop-color="rgb(0%, 36.657715%, 69.006348%)" offset="0.660156"/><stop stop-opacity="1" stop-color="rgb(0%, 36.968994%, 69.078064%)" offset="0.664062"/><stop stop-opacity="1" stop-color="rgb(0%, 37.278748%, 69.148254%)" offset="0.667969"/><stop stop-opacity="1" stop-color="rgb(0%, 37.588501%, 69.219971%)" offset="0.671875"/><stop stop-opacity="1" stop-color="rgb(0%, 37.898254%, 69.290161%)" offset="0.675781"/><stop stop-opacity="1" stop-color="rgb(0%, 38.209534%, 69.361877%)" offset="0.679688"/><stop stop-opacity="1" stop-color="rgb(0%, 38.519287%, 69.432068%)" offset="0.683594"/><stop stop-opacity="1" stop-color="rgb(0%, 38.829041%, 69.502258%)" offset="0.6875"/><stop stop-opacity="1" stop-color="rgb(0%, 39.138794%, 69.572449%)" offset="0.691406"/><stop stop-opacity="1" stop-color="rgb(0%, 39.450073%, 69.644165%)" offset="0.695312"/><stop stop-opacity="1" stop-color="rgb(0%, 39.759827%, 69.714355%)" offset="0.699219"/><stop stop-opacity="1" stop-color="rgb(0%, 40.06958%, 69.786072%)" offset="0.703125"/><stop stop-opacity="1" stop-color="rgb(0%, 40.379333%, 69.856262%)" offset="0.707031"/><stop stop-opacity="1" stop-color="rgb(0%, 40.690613%, 69.926453%)" offset="0.710938"/><stop stop-opacity="1" stop-color="rgb(0%, 41.000366%, 69.996643%)" offset="0.714844"/><stop stop-opacity="1" stop-color="rgb(0%, 41.31012%, 70.068359%)" offset="0.71875"/><stop stop-opacity="1" stop-color="rgb(0%, 41.619873%, 70.13855%)" offset="0.722656"/><stop stop-opacity="1" stop-color="rgb(0%, 41.931152%, 70.210266%)" offset="0.726563"/><stop stop-opacity="1" stop-color="rgb(0%, 42.240906%, 70.280457%)" offset="0.730469"/><stop stop-opacity="1" stop-color="rgb(0%, 42.550659%, 70.350647%)" offset="0.734375"/><stop stop-opacity="1" stop-color="rgb(0%, 42.860413%, 70.420837%)" offset="0.738281"/><stop stop-opacity="1" stop-color="rgb(0%, 43.171692%, 70.492554%)" offset="0.742188"/><stop stop-opacity="1" stop-color="rgb(0%, 43.481445%, 70.562744%)" offset="0.746094"/><stop stop-opacity="1" stop-color="rgb(0%, 43.791199%, 70.63446%)" offset="0.75"/><stop stop-opacity="1" stop-color="rgb(0%, 44.100952%, 70.704651%)" offset="0.753906"/><stop stop-opacity="1" stop-color="rgb(0%, 44.410706%, 70.776367%)" offset="0.757813"/><stop stop-opacity="1" stop-color="rgb(0%, 44.720459%, 70.846558%)" offset="0.761719"/><stop stop-opacity="1" stop-color="rgb(0%, 45.031738%, 70.916748%)" offset="0.765625"/><stop stop-opacity="1" stop-color="rgb(0%, 45.341492%, 70.986938%)" offset="0.769531"/><stop stop-opacity="1" stop-color="rgb(0%, 45.651245%, 71.058655%)" offset="0.773438"/><stop stop-opacity="1" stop-color="rgb(0%, 45.960999%, 71.128845%)" offset="0.777344"/><stop stop-opacity="1" stop-color="rgb(0%, 46.272278%, 71.200562%)" offset="0.78125"/><stop stop-opacity="1" stop-color="rgb(0%, 46.582031%, 71.270752%)" offset="0.785156"/><stop stop-opacity="1" stop-color="rgb(0%, 46.891785%, 71.340942%)" offset="0.789063"/><stop stop-opacity="1" stop-color="rgb(0%, 47.201538%, 71.411133%)" offset="0.792969"/><stop stop-opacity="1" stop-color="rgb(0%, 47.512817%, 71.482849%)" offset="0.796875"/><stop stop-opacity="1" stop-color="rgb(0%, 47.822571%, 71.55304%)" offset="0.800781"/><stop stop-opacity="1" stop-color="rgb(0%, 48.132324%, 71.624756%)" offset="0.804688"/><stop stop-opacity="1" stop-color="rgb(0%, 48.442078%, 71.694946%)" offset="0.808594"/><stop stop-opacity="1" stop-color="rgb(0%, 48.753357%, 71.765137%)" offset="0.8125"/><stop stop-opacity="1" stop-color="rgb(0%, 49.06311%, 71.835327%)" offset="0.816406"/><stop stop-opacity="1" stop-color="rgb(0%, 49.372864%, 71.907043%)" offset="0.820313"/><stop stop-opacity="1" stop-color="rgb(0%, 49.682617%, 71.977234%)" offset="0.824219"/><stop stop-opacity="1" stop-color="rgb(0%, 49.993896%, 72.04895%)" offset="0.828125"/><stop stop-opacity="1" stop-color="rgb(0%, 50.30365%, 72.119141%)" offset="0.832031"/><stop stop-opacity="1" stop-color="rgb(0%, 50.613403%, 72.190857%)" offset="0.835938"/><stop stop-opacity="1" stop-color="rgb(0%, 50.923157%, 72.261047%)" offset="0.839844"/><stop stop-opacity="1" stop-color="rgb(0%, 51.234436%, 72.331238%)" offset="0.84375"/><stop stop-opacity="1" stop-color="rgb(0%, 51.544189%, 72.401428%)" offset="0.847656"/><stop stop-opacity="1" stop-color="rgb(0%, 51.853943%, 72.473145%)" offset="0.851563"/><stop stop-opacity="1" stop-color="rgb(0%, 52.163696%, 72.543335%)" offset="0.855469"/><stop stop-opacity="1" stop-color="rgb(0%, 52.47345%, 72.615051%)" offset="0.859375"/><stop stop-opacity="1" stop-color="rgb(0%, 52.783203%, 72.685242%)" offset="0.863281"/><stop stop-opacity="1" stop-color="rgb(0%, 53.094482%, 72.755432%)" offset="0.867188"/><stop stop-opacity="1" stop-color="rgb(0%, 53.404236%, 72.825623%)" offset="0.871094"/><stop stop-opacity="1" stop-color="rgb(0%, 53.713989%, 72.897339%)" offset="0.875"/><stop stop-opacity="1" stop-color="rgb(0%, 54.023743%, 72.967529%)" offset="0.878906"/><stop stop-opacity="1" stop-color="rgb(0%, 54.335022%, 73.039246%)" offset="0.882813"/><stop stop-opacity="1" stop-color="rgb(0%, 54.644775%, 73.109436%)" offset="0.886719"/><stop stop-opacity="1" stop-color="rgb(0%, 54.954529%, 73.179626%)" offset="0.890625"/><stop stop-opacity="1" stop-color="rgb(0%, 55.264282%, 73.249817%)" offset="0.894531"/><stop stop-opacity="1" stop-color="rgb(0%, 55.575562%, 73.321533%)" offset="0.898438"/><stop stop-opacity="1" stop-color="rgb(0%, 55.885315%, 73.391724%)" offset="0.902344"/><stop stop-opacity="1" stop-color="rgb(0%, 56.195068%, 73.46344%)" offset="0.90625"/><stop stop-opacity="1" stop-color="rgb(0%, 56.504822%, 73.53363%)" offset="0.910156"/><stop stop-opacity="1" stop-color="rgb(0%, 56.816101%, 73.605347%)" offset="0.914063"/><stop stop-opacity="1" stop-color="rgb(0%, 57.125854%, 73.675537%)" offset="0.917969"/><stop stop-opacity="1" stop-color="rgb(0%, 57.435608%, 73.745728%)" offset="0.921875"/><stop stop-opacity="1" stop-color="rgb(0%, 57.745361%, 73.815918%)" offset="0.925781"/><stop stop-opacity="1" stop-color="rgb(0%, 58.056641%, 73.887634%)" offset="0.929688"/><stop stop-opacity="1" stop-color="rgb(0%, 58.366394%, 73.957825%)" offset="0.933594"/><stop stop-opacity="1" stop-color="rgb(0%, 58.676147%, 74.029541%)" offset="0.9375"/><stop stop-opacity="1" stop-color="rgb(0%, 58.985901%, 74.099731%)" offset="0.941406"/><stop stop-opacity="1" stop-color="rgb(0%, 59.295654%, 74.169922%)" offset="0.945312"/><stop stop-opacity="1" stop-color="rgb(0%, 59.605408%, 74.240112%)" offset="0.949219"/><stop stop-opacity="1" stop-color="rgb(0%, 59.916687%, 74.311829%)" offset="0.953125"/><stop stop-opacity="1" stop-color="rgb(0%, 60.22644%, 74.382019%)" offset="0.957031"/><stop stop-opacity="1" stop-color="rgb(0%, 60.536194%, 74.453735%)" offset="0.960938"/><stop stop-opacity="1" stop-color="rgb(0%, 60.845947%, 74.523926%)" offset="0.964844"/><stop stop-opacity="1" stop-color="rgb(0%, 61.157227%, 74.594116%)" offset="0.96875"/><stop stop-opacity="1" stop-color="rgb(0%, 61.46698%, 74.664307%)" offset="0.972656"/><stop stop-opacity="1" stop-color="rgb(0%, 61.776733%, 74.736023%)" offset="0.976562"/><stop stop-opacity="1" stop-color="rgb(0%, 62.086487%, 74.806213%)" offset="0.980469"/><stop stop-opacity="1" stop-color="rgb(0%, 62.397766%, 74.87793%)" offset="0.984375"/><stop stop-opacity="1" stop-color="rgb(0%, 62.70752%, 74.94812%)" offset="0.988281"/><stop stop-opacity="1" stop-color="rgb(0%, 63.017273%, 75.019836%)" offset="0.992188"/><stop stop-opacity="1" stop-color="rgb(0%, 63.327026%, 75.090027%)" offset="0.996094"/><stop stop-opacity="1" stop-color="rgb(0%, 63.638306%, 75.160217%)" offset="1"/></linearGradient></defs><g clip-path="url(#a7f8e749c8)"><g clip-path="url(#ca0726bb2b)"><path fill="url(#6a66600c7e)" d="M 96.285156 68.832031 L 96.285156 238.902344 L 278.535156 238.902344 L 278.535156 68.832031 Z M 96.285156 68.832031 " fill-rule="nonzero"/></g></g><g fill="#000000" fill-opacity="1"><g transform="translate(5.939127, 293.259952)"><g><path d="M 19.632812 -28.382812 L 3.71875 -28.382812 C 3.445312 -28.382812 2.753906 -28.277344 2.753906 -27.175781 L 2.753906 -24.457031 C 2.753906 -23.386719 3.445312 -23.285156 3.71875 -23.285156 L 18.738281 -23.285156 C 19.597656 -23.285156 20.21875 -23.042969 20.5625 -22.527344 C 20.941406 -22.011719 21.113281 -21.183594 21.113281 -20.046875 C 21.113281 -18.910156 20.941406 -18.082031 20.5625 -17.566406 C 20.21875 -17.050781 19.597656 -16.808594 18.738281 -16.808594 L 3.71875 -16.808594 C 3.445312 -16.808594 2.753906 -16.707031 2.753906 -15.636719 L 2.753906 -1.171875 C 2.753906 -0.101562 3.445312 0.0351562 3.71875 0.0351562 L 6.890625 0.0351562 C 7.164062 0.0351562 7.851562 -0.101562 7.851562 -1.171875 L 7.851562 -11.710938 L 19.632812 -11.746094 C 21.976562 -11.746094 23.664062 -12.46875 24.695312 -13.914062 C 25.730469 -15.363281 26.210938 -17.429688 26.210938 -20.148438 L 26.210938 -19.941406 C 26.210938 -22.699219 25.730469 -24.765625 24.695312 -26.175781 C 23.664062 -27.660156 21.976562 -28.382812 19.632812 -28.382812 Z M 19.632812 -28.382812 "/></g></g></g><g fill="#000000" fill-opacity="1"><g transform="translate(36.62691, 293.259952)"><g><path d="M 26.246094 -20.148438 C 26.246094 -20.117188 26.246094 -20.082031 26.246094 -20.046875 C 26.246094 -20.011719 26.246094 -19.976562 26.246094 -19.941406 Z M 26.902344 -1.480469 L 20.875 -11.8125 C 22.5625 -12.019531 23.871094 -12.746094 24.730469 -13.914062 C 25.695312 -15.328125 26.210938 -17.359375 26.246094 -20.046875 C 26.210938 -22.734375 25.695312 -24.765625 24.730469 -26.175781 C 23.699219 -27.660156 21.976562 -28.382812 19.632812 -28.382812 L 3.753906 -28.382812 C 3.445312 -28.382812 2.753906 -28.277344 2.753906 -27.175781 L 2.753906 -24.457031 C 2.753906 -23.386719 3.445312 -23.285156 3.753906 -23.285156 L 18.738281 -23.285156 C 19.632812 -23.285156 20.21875 -23.042969 20.5625 -22.527344 C 20.941406 -22.011719 21.113281 -21.183594 21.113281 -20.046875 C 21.113281 -18.910156 20.941406 -18.082031 20.5625 -17.566406 C 20.21875 -17.050781 19.632812 -16.808594 18.738281 -16.808594 L 3.753906 -16.808594 C 3.445312 -16.808594 2.753906 -16.707031 2.753906 -15.636719 L 2.753906 -1.171875 C 2.753906 -0.101562 3.445312 0.0351562 3.753906 0.0351562 L 6.890625 0.0351562 C 7.199219 0.0351562 7.851562 -0.101562 7.851562 -1.171875 L 7.851562 -11.710938 L 15.121094 -11.710938 L 21.355469 -0.65625 C 21.492188 -0.449219 21.597656 -0.277344 21.734375 -0.171875 C 21.90625 -0.0351562 22.148438 0.0351562 22.457031 0.0351562 L 26.246094 0.0351562 C 26.660156 0.0351562 26.96875 -0.242188 27.039062 -0.65625 C 27.074219 -1 27.039062 -1.273438 26.902344 -1.480469 Z M 26.902344 -1.480469 "/></g></g></g><g fill="#000000" fill-opacity="1"><g transform="translate(68.17574, 293.259952)"><g><path d="M 26.210938 -25.867188 C 25.523438 -26.730469 24.628906 -27.382812 23.523438 -27.796875 C 22.457031 -28.175781 21.148438 -28.382812 19.632812 -28.382812 L 11.230469 -28.382812 C 9.714844 -28.382812 8.4375 -28.175781 7.371094 -27.796875 C 6.269531 -27.382812 5.375 -26.730469 4.683594 -25.867188 C 4.03125 -25.007812 3.511719 -23.871094 3.203125 -22.492188 C 2.894531 -21.148438 2.753906 -19.53125 2.753906 -17.601562 L 2.753906 -10.78125 C 2.753906 -8.851562 2.894531 -7.199219 3.203125 -5.855469 C 3.511719 -4.476562 4.03125 -3.339844 4.683594 -2.480469 C 5.375 -1.585938 6.269531 -0.929688 7.371094 -0.550781 C 8.40625 -0.171875 9.714844 0.0351562 11.230469 0.0351562 L 19.632812 0.0351562 C 21.148438 0.0351562 22.457031 -0.171875 23.523438 -0.550781 C 24.628906 -0.929688 25.523438 -1.585938 26.210938 -2.445312 C 26.902344 -3.339844 27.382812 -4.476562 27.691406 -5.855469 C 27.96875 -7.199219 28.140625 -8.851562 28.140625 -10.78125 L 28.140625 -17.601562 C 28.140625 -19.496094 27.96875 -21.148438 27.691406 -22.492188 C 27.382812 -23.871094 26.902344 -25.007812 26.210938 -25.867188 Z M 23.007812 -18.1875 L 23.007812 -10.160156 C 23.007812 -9.164062 22.972656 -8.300781 22.835938 -7.613281 C 22.734375 -6.992188 22.527344 -6.441406 22.25 -6.097656 C 22.011719 -5.71875 21.664062 -5.476562 21.21875 -5.339844 C 20.769531 -5.167969 20.183594 -5.097656 19.460938 -5.097656 L 11.402344 -5.097656 C 10.675781 -5.097656 10.09375 -5.167969 9.644531 -5.339844 C 9.195312 -5.476562 8.851562 -5.71875 8.609375 -6.097656 C 8.335938 -6.441406 8.164062 -6.992188 8.027344 -7.613281 C 7.921875 -8.300781 7.851562 -9.164062 7.851562 -10.160156 L 7.851562 -18.1875 C 7.851562 -19.183594 7.921875 -20.046875 8.027344 -20.734375 C 8.164062 -21.390625 8.335938 -21.90625 8.609375 -22.285156 C 8.851562 -22.628906 9.195312 -22.871094 9.644531 -23.042969 C 10.09375 -23.179688 10.675781 -23.285156 11.402344 -23.285156 L 19.460938 -23.285156 C 20.183594 -23.285156 20.769531 -23.179688 21.21875 -23.042969 C 21.664062 -22.871094 22.011719 -22.628906 22.25 -22.285156 C 22.527344 -21.90625 22.734375 -21.390625 22.835938 -20.734375 C 22.972656 -20.046875 23.007812 -19.183594 23.007812 -18.1875 Z M 23.007812 -18.1875 "/></g></g></g><g fill="#000000" fill-opacity="1"><g transform="translate(100.792261, 293.259952)"><g><path d="M 31.515625 -28.382812 L 28.417969 -28.382812 C 27.933594 -28.382812 27.554688 -28.347656 27.210938 -28.246094 C 26.867188 -28.140625 26.554688 -27.96875 26.28125 -27.726562 C 26.039062 -27.453125 25.796875 -27.140625 25.59375 -26.730469 C 25.386719 -26.316406 25.214844 -25.796875 25.007812 -25.144531 L 18.910156 -9.921875 C 18.875 -9.78125 18.839844 -9.78125 18.804688 -9.78125 L 18.460938 -9.78125 C 18.460938 -9.78125 18.394531 -9.78125 18.359375 -9.921875 L 12.296875 -25.144531 C 12.089844 -25.796875 11.882812 -26.316406 11.710938 -26.730469 C 11.503906 -27.140625 11.261719 -27.453125 11.023438 -27.726562 C 10.746094 -27.96875 10.402344 -28.140625 10.058594 -28.246094 C 9.714844 -28.347656 9.300781 -28.382812 8.851562 -28.382812 L 5.683594 -28.382812 C 4.511719 -28.382812 3.71875 -28.003906 3.308594 -27.28125 C 2.929688 -26.625 2.753906 -25.523438 2.753906 -23.9375 L 2.753906 -1.171875 C 2.753906 -0.101562 3.445312 0.0351562 3.753906 0.0351562 L 6.714844 0.0351562 C 7.027344 0.0351562 7.679688 -0.101562 7.679688 -1.171875 L 7.679688 -21.871094 C 7.679688 -21.90625 7.679688 -21.941406 7.679688 -21.941406 L 7.851562 -21.941406 C 7.886719 -21.941406 7.921875 -21.941406 7.957031 -21.835938 L 13.847656 -7.269531 C 14.085938 -6.542969 14.328125 -5.925781 14.570312 -5.40625 C 14.84375 -4.890625 15.121094 -4.476562 15.398438 -4.132812 C 15.742188 -3.789062 16.085938 -3.511719 16.5 -3.375 C 16.910156 -3.238281 17.359375 -3.167969 17.875 -3.167969 L 19.289062 -3.167969 C 19.804688 -3.167969 20.289062 -3.238281 20.667969 -3.375 C 21.078125 -3.511719 21.457031 -3.789062 21.769531 -4.132812 C 22.042969 -4.476562 22.355469 -4.890625 22.59375 -5.40625 C 22.835938 -5.925781 23.078125 -6.542969 23.320312 -7.269531 L 29.242188 -21.871094 C 29.242188 -21.941406 29.277344 -21.941406 29.3125 -21.941406 L 29.484375 -21.941406 C 29.484375 -21.941406 29.484375 -21.90625 29.484375 -21.871094 L 29.484375 -1.171875 C 29.484375 -0.101562 30.171875 0.0351562 30.449219 0.0351562 L 33.410156 0.0351562 C 33.722656 0.0351562 34.410156 -0.101562 34.410156 -1.171875 L 34.410156 -23.9375 C 34.410156 -25.523438 34.238281 -26.625 33.859375 -27.28125 C 33.445312 -28.003906 32.652344 -28.382812 31.515625 -28.382812 Z M 31.515625 -28.382812 "/></g></g></g><g fill="#000000" fill-opacity="1"><g transform="translate(139.677226, 293.259952)"><g><path d="M 19.632812 -28.382812 L 3.71875 -28.382812 C 3.445312 -28.382812 2.753906 -28.277344 2.753906 -27.175781 L 2.753906 -24.457031 C 2.753906 -23.386719 3.445312 -23.285156 3.71875 -23.285156 L 18.738281 -23.285156 C 19.597656 -23.285156 20.21875 -23.042969 20.5625 -22.527344 C 20.941406 -22.011719 21.113281 -21.183594 21.113281 -20.046875 C 21.113281 -18.910156 20.941406 -18.082031 20.5625 -17.566406 C 20.21875 -17.050781 19.597656 -16.808594 18.738281 -16.808594 L 3.71875 -16.808594 C 3.445312 -16.808594 2.753906 -16.707031 2.753906 -15.636719 L 2.753906 -1.171875 C 2.753906 -0.101562 3.445312 0.0351562 3.71875 0.0351562 L 6.890625 0.0351562 C 7.164062 0.0351562 7.851562 -0.101562 7.851562 -1.171875 L 7.851562 -11.710938 L 19.632812 -11.746094 C 21.976562 -11.746094 23.664062 -12.46875 24.695312 -13.914062 C 25.730469 -15.363281 26.210938 -17.429688 26.210938 -20.148438 L 26.210938 -19.941406 C 26.210938 -22.699219 25.730469 -24.765625 24.695312 -26.175781 C 23.664062 -27.660156 21.976562 -28.382812 19.632812 -28.382812 Z M 19.632812 -28.382812 "/></g></g></g><g fill="#000000" fill-opacity="1"><g transform="translate(170.365009, 293.259952)"><g><path d="M 26.554688 -28.382812 L 3.753906 -28.382812 C 3.445312 -28.382812 2.753906 -28.277344 2.753906 -27.210938 L 2.753906 -24.523438 C 2.753906 -23.386719 3.445312 -23.285156 3.753906 -23.285156 L 12.605469 -23.285156 L 12.605469 -1.171875 C 12.605469 -0.101562 13.296875 0 13.570312 0 L 16.738281 0 C 17.050781 0 17.703125 -0.101562 17.703125 -1.171875 L 17.703125 -23.285156 L 26.554688 -23.285156 C 26.867188 -23.285156 27.554688 -23.386719 27.554688 -24.523438 L 27.554688 -27.210938 C 27.554688 -28.277344 26.867188 -28.382812 26.554688 -28.382812 Z M 26.554688 -28.382812 "/></g></g></g><g fill="#000000" fill-opacity="1"><g transform="translate(202.396031, 293.259952)"><g><path d="M 26.074219 -28.382812 L 11.261719 -28.382812 C 9.746094 -28.382812 8.4375 -28.175781 7.371094 -27.796875 C 6.304688 -27.382812 5.375 -26.730469 4.71875 -25.867188 C 4.03125 -24.972656 3.511719 -23.871094 3.203125 -22.492188 C 2.894531 -21.148438 2.753906 -19.496094 2.753906 -17.601562 L 2.753906 -10.78125 C 2.753906 -8.851562 2.894531 -7.199219 3.203125 -5.820312 C 3.511719 -4.476562 4.03125 -3.339844 4.71875 -2.445312 C 5.40625 -1.585938 6.304688 -0.929688 7.371094 -0.550781 C 8.4375 -0.171875 9.746094 0.0351562 11.261719 0.0351562 L 23.042969 0.0351562 C 24.316406 0.0351562 25.316406 -0.480469 26.003906 -1.480469 C 26.660156 -2.445312 27.003906 -4.0625 27.003906 -6.371094 L 27.003906 -15.601562 C 27.003906 -16.910156 26.246094 -17.117188 25.796875 -17.117188 L 13.605469 -17.117188 C 13.328125 -17.117188 12.640625 -16.980469 12.640625 -15.878906 L 12.640625 -13.261719 C 12.640625 -12.125 13.328125 -12.019531 13.605469 -12.019531 L 22.183594 -12.019531 C 22.183594 -12.019531 22.214844 -7.199219 22.214844 -7.199219 C 22.214844 -6.132812 22.042969 -5.683594 21.90625 -5.476562 C 21.734375 -5.199219 21.457031 -5.097656 21.078125 -5.097656 L 11.433594 -5.097656 C 10.710938 -5.097656 10.09375 -5.167969 9.644531 -5.339844 C 9.195312 -5.476562 8.886719 -5.71875 8.609375 -6.097656 C 8.371094 -6.441406 8.164062 -6.957031 8.058594 -7.613281 C 7.921875 -8.300781 7.851562 -9.164062 7.851562 -10.195312 L 7.851562 -18.1875 C 7.851562 -19.21875 7.921875 -20.082031 8.058594 -20.769531 C 8.164062 -21.390625 8.371094 -21.90625 8.609375 -22.285156 C 8.886719 -22.628906 9.195312 -22.871094 9.644531 -23.042969 C 10.09375 -23.179688 10.710938 -23.285156 11.433594 -23.285156 L 26.074219 -23.285156 C 26.351562 -23.285156 27.039062 -23.386719 27.039062 -24.488281 L 27.039062 -27.175781 C 27.039062 -28.246094 26.351562 -28.382812 26.074219 -28.382812 Z M 26.074219 -28.382812 "/></g></g></g><g fill="#000000" fill-opacity="1"><g transform="translate(233.910419, 293.259952)"><g><path d="M 23.457031 -6.164062 L 11.332031 -6.164062 C 10.609375 -6.164062 10.023438 -6.269531 9.542969 -6.40625 C 9.09375 -6.578125 8.785156 -6.820312 8.507812 -7.164062 C 8.230469 -7.542969 8.027344 -8.058594 7.921875 -8.714844 C 7.886719 -8.886719 7.886719 -9.128906 7.851562 -9.300781 C 7.851562 -9.300781 7.886719 -11.78125 7.921875 -11.78125 L 23.320312 -11.78125 C 23.59375 -11.78125 24.28125 -11.917969 24.28125 -12.984375 L 24.28125 -15.707031 C 24.28125 -16.773438 23.59375 -16.878906 23.320312 -16.878906 L 5.546875 -16.84375 C 4.546875 -16.773438 3.683594 -16.257812 3.203125 -15.398438 C 3.03125 -15.121094 2.894531 -14.84375 2.824219 -14.535156 L 2.753906 -10.195312 L 2.753906 -10.023438 C 2.789062 -8.40625 2.960938 -7.027344 3.203125 -5.890625 C 3.511719 -4.511719 4.03125 -3.375 4.683594 -2.515625 C 5.375 -1.617188 6.269531 -1 7.371094 -0.621094 C 8.4375 -0.207031 9.714844 -0.0351562 11.230469 -0.0351562 L 23.457031 -0.0351562 C 23.765625 -0.0351562 24.457031 -0.136719 24.457031 -1.207031 L 24.457031 -4.996094 C 24.457031 -6.0625 23.765625 -6.164062 23.457031 -6.164062 Z M 23.492188 -28.449219 L 3.683594 -28.449219 C 3.410156 -28.449219 2.753906 -28.3125 2.753906 -27.210938 L 2.753906 -24.523438 C 2.753906 -23.457031 3.410156 -23.351562 3.683594 -23.351562 L 23.492188 -23.320312 C 23.765625 -23.320312 24.457031 -23.457031 24.457031 -24.523438 L 24.457031 -27.246094 C 24.457031 -28.3125 23.765625 -28.449219 23.492188 -28.449219 Z M 23.492188 -28.449219 "/></g></g></g><g fill="#000000" fill-opacity="1"><g transform="translate(262.841652, 293.259952)"><g><path d="M 27.140625 -28.382812 L 24.078125 -28.382812 C 23.765625 -28.382812 23.113281 -28.277344 23.113281 -27.175781 L 23.113281 -6.476562 C 23.113281 -6.441406 23.113281 -6.441406 23.113281 -6.40625 L 22.941406 -6.40625 C 22.90625 -6.40625 22.871094 -6.40625 22.835938 -6.511719 L 11.953125 -25.867188 C 11.675781 -26.382812 11.433594 -26.796875 11.195312 -27.109375 C 10.953125 -27.453125 10.710938 -27.726562 10.472656 -27.898438 C 10.195312 -28.105469 9.886719 -28.246094 9.507812 -28.3125 C 9.164062 -28.347656 8.75 -28.382812 8.300781 -28.382812 L 5.71875 -28.382812 C 4.71875 -28.382812 3.960938 -28.039062 3.480469 -27.417969 C 2.996094 -26.761719 2.753906 -25.625 2.753906 -23.9375 L 2.753906 -1.171875 C 2.753906 -0.101562 3.445312 0.0351562 3.753906 0.0351562 L 6.820312 0.0351562 C 7.128906 0.0351562 7.785156 -0.101562 7.785156 -1.171875 L 7.785156 -21.871094 C 7.785156 -21.90625 7.785156 -21.941406 7.785156 -21.941406 L 7.957031 -21.941406 C 7.957031 -21.941406 7.992188 -21.941406 8.058594 -21.835938 L 18.980469 -2.480469 C 19.253906 -1.929688 19.53125 -1.515625 19.769531 -1.207031 C 20.011719 -0.859375 20.253906 -0.621094 20.527344 -0.449219 C 20.804688 -0.242188 21.113281 -0.136719 21.457031 -0.0703125 C 21.769531 0 22.148438 0.0351562 22.628906 0.0351562 L 25.144531 0.0351562 C 26.144531 0.0351562 26.902344 -0.308594 27.382812 -0.964844 C 27.867188 -1.585938 28.105469 -2.722656 28.105469 -4.410156 L 28.105469 -27.175781 C 28.105469 -28.277344 27.417969 -28.382812 27.140625 -28.382812 Z M 27.140625 -28.382812 "/></g></g></g><g fill="#000000" fill-opacity="1"><g transform="translate(295.423732, 293.259952)"><g><path d="M 6.890625 -28.382812 L 3.71875 -28.382812 C 3.445312 -28.382812 2.753906 -28.246094 2.753906 -27.175781 L 2.753906 -1.171875 C 2.753906 -0.101562 3.445312 0.0351562 3.71875 0.0351562 L 6.890625 0.0351562 C 7.164062 0.0351562 7.851562 -0.101562 7.851562 -1.171875 L 7.851562 -27.175781 C 7.851562 -28.246094 7.164062 -28.382812 6.890625 -28.382812 Z M 6.890625 -28.382812 "/></g></g></g><g fill="#000000" fill-opacity="1"><g transform="translate(307.753937, 293.259952)"><g><path d="M 26.554688 -28.382812 L 23.386719 -28.382812 C 23.078125 -28.382812 22.421875 -28.277344 22.421875 -27.210938 L 22.421875 -10.230469 C 22.421875 -9.195312 22.355469 -8.300781 22.25 -7.648438 C 22.148438 -6.992188 21.941406 -6.476562 21.699219 -6.097656 C 21.425781 -5.753906 21.113281 -5.511719 20.667969 -5.339844 C 20.21875 -5.199219 19.597656 -5.097656 18.875 -5.097656 L 11.433594 -5.097656 C 10.710938 -5.097656 10.09375 -5.199219 9.644531 -5.339844 C 9.195312 -5.511719 8.886719 -5.753906 8.609375 -6.097656 C 8.371094 -6.476562 8.164062 -6.992188 8.027344 -7.648438 C 7.921875 -8.300781 7.851562 -9.195312 7.851562 -10.230469 L 7.851562 -27.210938 C 7.851562 -28.277344 7.199219 -28.382812 6.890625 -28.382812 L 3.753906 -28.382812 C 3.445312 -28.382812 2.753906 -28.277344 2.753906 -27.210938 L 2.753906 -10.78125 C 2.753906 -8.851562 2.894531 -7.199219 3.203125 -5.855469 C 3.511719 -4.476562 4.03125 -3.339844 4.71875 -2.480469 C 5.375 -1.585938 6.304688 -0.964844 7.371094 -0.550781 C 8.4375 -0.171875 9.746094 0 11.261719 0 L 19.011719 0 C 20.527344 0 21.835938 -0.171875 22.90625 -0.550781 C 24.007812 -0.964844 24.902344 -1.585938 25.59375 -2.480469 C 26.28125 -3.339844 26.761719 -4.476562 27.074219 -5.855469 C 27.382812 -7.199219 27.519531 -8.851562 27.519531 -10.78125 L 27.519531 -27.210938 C 27.519531 -28.277344 26.867188 -28.382812 26.554688 -28.382812 Z M 26.554688 -28.382812 "/></g></g></g><g fill="#000000" fill-opacity="1"><g transform="translate(339.750518, 293.259952)"><g><path d="M 19.390625 -16.945312 L 9.058594 -16.945312 C 8.542969 -16.945312 7.886719 -17.152344 7.886719 -18.839844 L 7.886719 -21.390625 C 7.886719 -22.011719 7.992188 -22.492188 8.164062 -22.835938 C 8.300781 -23.042969 8.507812 -23.285156 9.09375 -23.285156 L 23.113281 -23.285156 C 23.386719 -23.285156 24.078125 -23.386719 24.078125 -24.457031 L 24.078125 -27.210938 C 24.078125 -28.277344 23.386719 -28.382812 23.113281 -28.382812 L 8.265625 -28.382812 C 6.371094 -28.382812 4.996094 -27.761719 4.097656 -26.488281 C 3.203125 -25.246094 2.753906 -23.59375 2.753906 -21.597656 L 2.753906 -18.980469 C 2.753906 -16.601562 3.238281 -14.671875 4.097656 -13.46875 C 5.167969 -12.054688 6.75 -11.847656 8.199219 -11.847656 L 18.53125 -11.847656 C 19.046875 -11.847656 19.738281 -11.640625 19.738281 -9.953125 L 19.738281 -6.992188 C 19.738281 -6.371094 19.632812 -5.890625 19.425781 -5.546875 C 19.289062 -5.339844 19.082031 -5.097656 18.496094 -5.097656 L 3.789062 -5.097656 C 3.480469 -5.097656 2.789062 -4.996094 2.789062 -3.925781 L 2.789062 -1.171875 C 2.789062 -0.101562 3.480469 0 3.789062 0 L 19.324219 0 C 21.21875 0 22.628906 -0.65625 23.523438 -1.929688 C 24.386719 -3.167969 24.835938 -4.789062 24.835938 -6.785156 L 24.835938 -9.816406 C 24.835938 -12.054688 24.386719 -13.8125 23.492188 -15.050781 C 22.5625 -16.292969 21.183594 -16.945312 19.390625 -16.945312 Z M 19.390625 -16.945312 "/></g></g></g></svg>